PathFileType	4	(X/Y/Z)	D:\TRACE\spot_10-12-23\spot_body_motion_3_5-platform.trc
DataRate	CameraRate	NumFrames	NumMarkers	Units	OrigDataRate	OrigDataStartFrame	OrigNumFrames
100.00	100.00	      68	5	mm	100.00	1751	      7000
Frame#	Time	Left_Front			Right_Front			Left_Aft			Right_Aft			Post			
		X1	Y1	Z1	X2	Y2	Z2	X3	Y3	Z3	X4	Y4	Z4	X5	Y5	Z5	

1751	17.500	-803.78424	5.82172	-641.80048	768.83759	10.05387	-634.82422	-720.95728	5.89704	496.04181	696.76331	10.58315	582.36646	-20.93249	743.10913	-960.09894	
1752	17.510	-803.80817	5.66736	-641.79089	768.65167	9.99465	-634.95819	-720.94208	5.84754	496.06552	696.61310	10.58627	582.37970	-20.93534	743.07446	-960.20819	
1753	17.520	-803.87787	5.57580	-641.77155	768.59088	9.94725	-634.92828	-720.98883	5.88416	496.08398	696.52814	10.62691	582.35675	-20.98645	743.03455	-960.36420	
1754	17.530	-803.91479	5.46212	-641.76752	768.50549	9.89937	-634.94397	-721.03967	5.86784	496.07175	696.43365	10.61944	582.32751	-21.11664	742.99139	-960.56879	
1755	17.540	-803.96893	5.44360	-641.78961	768.47076	9.85390	-634.93378	-721.10681	5.84406	496.09073	696.39398	10.65456	582.31689	-21.31602	742.93250	-960.76422	
1756	17.550	-804.08380	5.47082	-641.80896	768.38367	9.83210	-634.96106	-721.18750	5.90743	496.11179	696.28467	10.68135	582.30347	-21.40343	742.90131	-960.90991	
1757	17.560	-804.16675	5.51530	-641.72992	768.36536	9.82547	-635.00085	-721.24164	5.93073	496.05923	696.26721	10.70624	582.29962	-21.45621	742.92822	-960.94116	
1758	17.570	-804.26801	5.50088	-641.75616	768.28943	9.80118	-634.99768	-721.29468	5.96571	496.07059	695.32709	9.93850	582.40918	-21.51159	742.83368	-960.90472	
1759	17.580	-804.28467	5.42922	-641.80273	768.28259	9.81160	-634.95117	-721.35840	5.93410	496.05325	695.31531	9.98857	582.35168	-21.56029	742.81836	-960.86798	
1760	17.590	-804.30194	5.37844	-641.78076	768.21851	9.77300	-634.98706	-721.43115	5.95253	496.04944	695.20447	10.01887	582.33850	-21.55265	742.77179	-960.83429	
1761	17.600	-804.35791	5.31026	-641.79407	768.23090	9.77721	-634.98621	-721.46497	5.97651	496.03278	695.12976	10.04348	582.28644	-21.56961	742.70331	-960.79449	
1762	17.610	-804.50366	5.40737	-641.72479	768.14716	9.77975	-634.97845	-721.53015	5.98441	496.01242	695.14209	10.04159	582.30786	-21.66539	742.69733	-960.77045	
1763	17.620	-804.48792	5.42441	-641.77277	768.07599	9.78419	-634.98560	-721.57855	5.94883	496.03610	695.14557	10.02229	582.34753	-21.63679	742.69781	-960.72644	
1764	17.630	-804.47998	5.35251	-641.72894	768.04755	9.76651	-634.93805	-721.57520	5.97666	496.05432	695.07343	10.01775	582.32001	-21.66868	742.75867	-960.73010	
1765	17.640	-804.49890	5.34587	-641.69824	767.99506	9.82162	-634.94647	-721.63983	5.93745	496.08167	695.06403	10.05374	582.31360	-21.64268	742.83734	-960.70288	
1766	17.650	-804.63434	5.51209	-641.69672	767.80902	10.04256	-634.99207	-721.66937	5.94769	496.09052	695.18420	10.27781	582.35870	-21.86145	742.78033	-960.69165	
1767	17.660	-804.70679	5.72679	-641.69531	767.90057	9.94609	-634.93182	-721.66858	5.91763	496.07727	695.74646	10.70728	582.22858	-21.89539	742.82111	-960.71149	
1768	17.670	-804.64532	5.41228	-641.70422	767.94098	9.66441	-634.90546	-721.69653	5.85941	496.09494	695.72559	10.67859	582.18890	-22.02890	742.88617	-960.76001	
1769	17.680	-804.69226	5.42615	-641.67383	767.83203	9.89769	-634.94348	-721.78204	5.89550	496.05438	695.19067	10.27283	582.28772	-22.21437	742.84021	-960.73450	
1770	17.690	-804.78241	5.58581	-641.67816	767.76794	10.04392	-634.89008	-721.77631	5.81550	496.09354	695.33966	10.36216	582.28448	-22.07192	742.94928	-960.77643	
1771	17.700	-804.80804	5.65060	-641.69250	767.73859	10.05588	-634.89496	-721.78558	5.90207	496.11642	695.39484	10.48907	582.27466	-22.01643	742.95880	-960.70337	
1772	17.710	-804.86108	5.72901	-641.65826	767.76062	9.88194	-634.88641	-721.77185	5.78565	496.09613	695.43799	10.49426	582.30426	-21.98667	743.05634	-960.76483	
1773	17.720	-805.04248	6.00013	-641.61377	767.74774	10.00159	-634.91760	-721.79065	5.81743	496.12805	695.47455	10.45298	582.29968	-21.99396	743.07776	-960.70453	
1774	17.730	-805.06897	5.99716	-641.63086	767.63977	10.19226	-634.88928	-721.76471	5.81371	496.09772	695.45721	10.40333	582.33710	-21.85786	743.04083	-960.63855	
1775	17.740	-805.13373	6.02633	-641.65417	767.65845	10.12030	-634.88983	-721.82574	5.76326	496.13495	695.40497	10.38084	582.33765	-21.80936	743.03558	-960.52295	
1776	17.750	-805.04163	6.09671	-641.67242	767.63293	10.13871	-634.88275	-721.83862	5.68068	496.14926	695.43445	10.32461	582.34637	-21.81941	743.14258	-960.47449	
1777	17.760	-805.16516	6.27355	-641.65454	767.62170	10.22053	-634.80054	-721.81628	5.67038	496.11588	695.45135	10.26873	582.37677	-21.78180	743.26978	-960.34998	
1778	17.770	-805.08612	6.19986	-641.61230	767.58734	10.41352	-634.77747	-721.78424	5.71293	496.13104	695.40997	10.26400	582.43787	-21.85143	743.41040	-960.19458	
1779	17.780	-805.21106	6.37010	-641.60846	767.53815	10.43764	-634.83679	-721.81458	5.59435	496.18027	695.41675	10.19127	582.44434	-21.78870	743.49591	-960.18750	
1780	17.790	-805.22736	6.36804	-641.57538	767.55573	10.42642	-634.82532	-721.87708	5.59578	496.15308	695.42871	10.15280	582.45306	-21.71328	743.57086	-960.06482	
1781	17.800	-805.21112	6.41290	-641.57092	767.52863	10.44580	-634.81439	-721.85608	5.53909	496.18597	695.42542	10.10334	582.47516	-21.77545	743.59283	-959.84943	
1782	17.810	-805.11786	6.43930	-641.60809	767.65735	10.48061	-634.71875	-721.82056	5.50873	496.15735	695.40210	10.08712	582.48212	-21.70675	743.60278	-959.63702	
1783	17.820	-804.99603	6.43083	-641.61298	767.57977	10.57423	-634.69427	-721.82501	5.54833	496.20230	695.42468	10.09385	582.48578	-21.66832	743.63086	-959.55298	
1784	17.830	-805.08545	6.44029	-641.64545	767.58466	10.56917	-634.76190	-721.82227	5.53025	496.18069	695.44531	10.09514	582.49365	-21.67616	743.66718	-959.47015	
1785	17.840	-805.11780	6.50274	-641.64984	767.58630	10.56061	-634.76691	-721.83801	5.56311	496.17627	695.40125	10.07797	582.50519	-21.81098	743.72650	-959.40869	
1786	17.850	-805.06421	6.52525	-641.65967	767.57007	10.58260	-634.83197	-721.79041	5.43629	496.16641	695.43811	10.06285	582.49500	-21.68940	743.71991	-959.38757	
1787	17.860	-805.10956	6.50980	-641.61267	767.57489	10.58601	-634.76385	-721.84949	5.48380	496.20029	695.39130	10.00508	582.51245	-21.75358	743.78455	-959.41846	
1788	17.870	-805.05273	6.55932	-641.54395	767.61273	10.70211	-634.68329	-721.82135	5.42489	496.20502	695.41840	9.99264	582.53613	-21.83517	743.87054	-959.54468	
1789	17.880	-805.04449	6.74862	-641.54517	767.58624	10.82011	-634.69305	-721.79126	5.39362	496.24667	695.43304	9.95857	582.53259	-21.85245	743.96460	-959.53015	
1790	17.890	-804.97461	6.80102	-641.60815	767.62183	10.87773	-634.68964	-721.77826	5.37379	496.22589	695.42346	9.95658	582.53815	-21.85280	744.08167	-959.63470	
1791	17.900	-805.01147	6.80871	-641.55908	767.59894	10.91314	-634.66992	-721.83777	5.37686	496.26001	695.42627	9.94471	582.56683	-21.94670	744.14447	-959.67078	
1792	17.910	-804.98315	6.73632	-641.58862	767.51080	10.91400	-634.75830	-721.82495	5.36017	496.22293	695.50104	9.89433	582.54816	-21.91465	744.18347	-959.57874	
1793	17.920	-805.04108	6.84087	-641.48914	767.58203	10.97751	-634.63123	-721.80273	5.31319	496.24673	695.44745	9.89882	582.58148	-21.93309	744.17987	-959.45532	
1794	17.930	-804.98767	6.80644	-641.52698	767.56940	11.00465	-634.66730	-721.80884	5.33170	496.24139	695.41290	9.88896	582.55023	-21.84758	744.19281	-959.29663	
1795	17.940	-804.99707	6.84853	-641.53900	767.59302	11.00331	-634.64789	-721.80841	5.36677	496.24655	695.41656	9.89672	582.55225	-21.85232	744.25336	-959.11230	
1796	17.950	-805.05182	6.88021	-641.56897	767.57343	10.99414	-634.69250	-721.78680	5.31091	496.24411	695.43433	9.91198	582.56982	-21.88448	744.27728	-958.95673	
1797	17.960	-805.02808	6.82562	-641.57550	767.59265	10.96786	-634.65442	-721.75171	5.28826	496.46619	695.47711	9.89355	582.55292	-21.91798	744.27710	-958.94476	
1798	17.970	-805.03455	6.82958	-641.53314	767.53009	10.96813	-634.71979	-721.79053	5.31229	496.25464	695.45447	9.87628	582.58173	-21.84651	744.26410	-958.87915	
1799	17.980	-804.95319	6.85790	-641.53607	767.56427	10.97453	-634.64618	-721.81049	5.31938	496.22745	695.43994	9.87318	582.59003	-21.89193	744.32336	-958.84875	
1800	17.990	-804.88446	6.88528	-641.56287	767.67926	11.01571	-634.58313	-721.78455	5.31977	496.29083	695.47406	9.87339	582.57605	-21.82193	744.33502	-958.85913	
1801	18.000	-804.96161	6.90489	-641.53607	767.64185	11.10343	-634.60919	-721.75653	5.28904	496.25571	695.50238	9.88008	582.58038	-21.74302	744.36163	-958.89233	
1802	18.010	-804.85291	6.90542	-641.55524	767.79578	11.08775	-634.52246	-721.73541	5.28938	496.27396	695.53894	9.84145	582.58075	-21.72765	744.39935	-958.99371	
1803	18.020	-804.72168	6.88708	-641.59344	767.83392	11.02864	-634.56793	-721.68408	5.28077	496.26740	695.67126	9.83295	582.61072	-21.70561	744.39191	-959.08258	
1804	18.030	-804.69519	6.94665	-641.54633	767.93042	11.07626	-634.63525	-721.61353	5.23676	496.27887	695.73413	9.84345	582.61908	-21.60867	744.32434	-959.14508	
1805	18.040	-804.59381	6.95450	-641.54944	767.98413	11.09029	-634.61462	-721.59149	5.25954	496.26877	695.83917	9.86120	582.61542	-21.51192	744.32892	-959.20203	
1806	18.050	-804.77380	7.04400	-641.50934	768.04974	11.02318	-634.58716	-721.49500	5.22254	496.47964	695.88336	9.87309	582.61505	-21.50206	744.30017	-959.23749	
1807	18.060	-804.76080	7.01324	-641.52533	768.07538	11.02200	-634.52356	-721.56848	5.31533	496.26297	695.85413	9.87093	582.59589	-21.48109	744.22180	-959.24152	
1808	18.070	-804.60413	6.86150	-641.66376	767.99384	10.94367	-634.62225	-721.55365	5.29084	496.23776	695.84027	9.89023	582.61084	-21.43125	744.15570	-959.19519	
1809	18.080	-804.58875	6.74065	-641.59332	768.00348	10.86837	-634.65906	-721.57990	5.29971	496.22287	695.77863	9.90495	582.59546	-21.52033	744.09808	-959.18835	
1810	18.090	-804.56763	6.75364	-641.60950	768.01898	10.80143	-634.66364	-721.55151	5.33416	496.21915	695.79663	9.94491	582.58624	-21.50313	744.01056	-959.20416	
1811	18.100	-804.65112	6.68737	-641.59601	768.09161	10.75897	-634.65356	-721.56464	5.41013	496.20883	695.86096	10.02076	582.60138	-21.44058	743.92633	-959.25562	
1812	18.110	-804.53967	6.68958	-641.69470	768.07507	10.72330	-634.64642	-721.56488	5.42285	496.19809	695.91437	10.04091	582.55090	-21.38664	743.80072	-959.34753	
1813	18.120	-804.55164	6.50626	-641.68103	768.00739	10.62439	-634.76080	-721.48016	5.47358	496.16431	695.93140	10.08638	582.53955	-21.34849	743.67242	-959.46979	
1814	18.130	-804.50311	6.29173	-641.61523	768.09808	10.51178	-634.79065	-721.51483	5.51932	496.13913	695.87592	10.09115	582.50983	-21.44407	743.51630	-959.55554	
1815	18.140	-804.45129	6.24131	-641.64941	768.10150	10.41677	-634.79968	-721.48254	5.54593	496.14282	695.95227	10.18316	582.47986	-21.40662	743.43756	-959.67511	
1816	18.150	-804.39026	6.09402	-641.68054	768.08496	10.34560	-634.82190	-721.43634	5.61270	496.12842	695.94995	10.24598	582.44061	-21.24208	743.37372	-959.90942	
1817	18.160	-804.45197	6.10849	-641.66309	768.14661	10.26289	-634.87225	-721.43896	5.71267	496.14816	696.06891	10.32310	582.43011	-21.25244	743.33179	-960.06372	
1818	18.170	-804.45776	5.99339	-641.68616	768.17291	10.20197	-634.84772	-721.36218	5.76663	496.12402	696.09717	10.45972	582.35944	-21.31399	743.18634	-960.25018	
